<svg xmlns="http://www.w3.org/2000/svg" width="1600" height="900" viewBox="0 0 1600 900">
  <defs>
    <linearGradient id="paper" x1="0" y1="0" x2="1" y2="1"><stop stop-color="#eee8dc"/><stop offset="1" stop-color="#d8cdbb"/></linearGradient>
    <radialGradient id="moon"><stop stop-color="#f3e9cf"/><stop offset=".75" stop-color="#d6b982"/><stop offset="1" stop-color="#a67b45"/></radialGradient>
  </defs>
  <rect width="1600" height="900" fill="url(#paper)"/>
  <circle cx="1130" cy="300" r="208" fill="url(#moon)" opacity=".88"/>
  <path d="M0 552c215-82 366-50 548-114 208-72 336-35 502 31 184 73 333 38 550-53v484H0Z" fill="#777469"/>
  <path d="M0 666c232-72 392-43 573-107 204-72 330-45 495 19 180 70 334 47 532-27v349H0Z" fill="#44443f"/>
  <path d="M0 767c250-64 416-22 608-82 178-56 322-37 482 26 172 67 328 51 510-10v199H0Z" fill="#292a27"/>
  <path d="M760 665c-8-84-13-166-8-247 5-76 18-139 39-185" fill="none" stroke="#eee8dc" stroke-width="10" opacity=".34"/>
  <path d="M748 428c-97 35-171 87-234 166M755 430c95 39 168 97 229 174" fill="none" stroke="#eee8dc" stroke-width="5" opacity=".27"/>
  <g transform="translate(748 510)" fill="#20211f">
    <circle cx="0" cy="-100" r="35"/>
    <path d="M-32-75c-28 48-31 109-10 168h91c11-67-2-124-42-170Z"/>
    <path d="M-39-18-92 42" fill="none" stroke="#20211f" stroke-width="18" stroke-linecap="round"/>
    <path d="M30-18 75 40" fill="none" stroke="#20211f" stroke-width="18" stroke-linecap="round"/>
    <path d="M-4-130 15-154 34-126" fill="#20211f"/>
  </g>
  <g transform="translate(500 736) rotate(-15)">
    <rect x="-130" y="-8" width="220" height="16" rx="8" fill="#b28a4c"/>
    <path d="M88-8h72v16H88M-117-26v52" fill="none" stroke="#b28a4c" stroke-width="13" stroke-linecap="round"/>
    <path d="M22-10 54 12" stroke="#913f30" stroke-width="8" stroke-linecap="round"/>
  </g>
  <path d="M455 785c70-24 133-52 192-90" fill="none" stroke="#913f30" stroke-width="4" stroke-linecap="round"/>
  <g transform="translate(1430 730)" opacity=".82">
    <circle r="68" fill="#eee8dc" stroke="#913f30" stroke-width="5"/>
    <path d="M-38-12Q0-48 38-12M-48-8H48" fill="none" stroke="#292a27" stroke-width="6" stroke-linecap="round"/>
    <path d="M-18 8Q0 24 18 8M0 11v23" fill="none" stroke="#292a27" stroke-width="5" stroke-linecap="round"/>
    <path d="M28 4v18l-13 21c-5 8 0 15 10 15h15c10 0 15-7 10-15L37 22V4" fill="none" stroke="#913f30" stroke-width="5"/>
  </g>
</svg>
